#!OML:ASF F:\VICON\USERDATA\INSTALL\rory3\rory3.ASF
:FULLY-SPECIFIED
:DEGREES
385
root -0.842481 17.4228 41.7758 1.4896 -5.65603 -4.51066
lowerback 4.67354 1.47796 4.47139
upperback 1.23635 2.21865 2.74589
thorax -1.28617 1.09737 0.193118
lowerneck -15.0831 -2.56226 -9.41259
upperneck 24.1365 -2.48744 5.18792
head 10.4046 -1.39821 3.10879
rclavicle 1.98785e-015 2.3059e-014
rhumerus -20.6033 -1.33592 -79.3778
rradius 37.5081
rwrist 0.133659
rhand -14.3361 17.3027
rfingers 7.12502
rthumb 11.8051 -12.3446
lclavicle 1.98785e-015 2.3059e-014
lhumerus -36.7403 10.6012 87.6977
lradius 23.2415
lwrist -16.4149
lhand -12.5022 27.949
lfingers 7.12502
lthumb 13.573 57.4866
rfemur 0.438933 5.70527 30.8801
rtibia 27.9945
rfoot -21.1762 -11.596
rtoes -6.78327
lfemur -26.4226 -2.30633 -11.5562
ltibia 22.7651
lfoot -2.63665 10.1529
ltoes -12.1189
386
root -0.837407 17.3937 41.9575 1.64212 -5.6727 -4.47691
lowerback 4.95209 1.49164 4.36492
upperback 0.856833 2.26975 2.75486
thorax -1.8363 1.11048 0.243779
lowerneck -14.8132 -2.39546 -9.10189
upperneck 24.3232 -2.2734 4.84215
head 10.3945 -1.3178 2.96395
rclavicle -8.19987e-015 -1.19271e-015
rhumerus -20.7635 -0.772013 -79.3446
rradius 37.9847
rwrist -0.414024
rhand -14.442 17.2176
rfingers 7.12502
rthumb 11.7029 -12.4356
lclavicle -8.19987e-015 -1.19271e-015
lhumerus -37.604 10.4712 87.8226
lradius 23.2313
lwrist -16.3152
lhand -12.5225 28.259
lfingers 7.12502
lthumb 13.5535 57.7978
rfemur 1.06875 5.83126 30.8624
rtibia 27.7744
rfoot -21.6077 -11.8115
rtoes -7.2872
lfemur -25.7484 -3.44429 -11.0495
ltibia 18.7218
lfoot -2.61167 10.5837
ltoes -13.7876
387
root -0.830901 17.3627 42.1482 1.86712 -5.93923 -4.45816
lowerback 4.74119 1.58873 4.32072
upperback 0.803445 2.38508 2.73147
thorax -1.77104 1.16883 0.242982
lowerneck -15.1211 -2.28342 -8.82985
upperneck 24.3139 -2.10965 4.6646
head 10.4317 -1.2348 2.87527
rclavicle -7.8023e-015 -1.55052e-014
rhumerus -20.324 -0.473447 -79.3234
rradius 38.2823
rwrist -0.702442
rhand -14.3791 17.3929
rfingers 7.12502
rthumb 11.7635 -12.2568
lclavicle -7.8023e-015 -1.55052e-014
lhumerus -37.8913 10.7733 87.748
lradius 22.8566
lwrist -17.1199
lhand -13.1142 27.2443
lfingers 7.12502
lthumb 12.9831 56.8204
rfemur 1.6548 6.05074 30.7851
rtibia 27.5369
rfoot -22.1201 -11.8026
rtoes -8.32848
lfemur -24.9911 -4.42021 -10.5309
ltibia 14.6248
lfoot -1.67336 11.2223
ltoes -16.1029
388
root -0.818436 17.3351 42.3318 2.13138 -6.29262 -4.81643
lowerback 4.75786 1.67135 4.69933
upperback 0.725249 2.51982 2.78416
thorax -1.84354 1.23138 0.0770352
lowerneck -15.4847 -2.25567 -8.5962
upperneck 24.4884 -2.06324 4.51681
head 10.5578 -1.2086 2.79135
rclavicle -1.59028e-014 -7.55382e-015
rhumerus -20.0329 -0.366558 -79.3604
rradius 38.7019
rwrist -0.797391
rhand -14.5523 18.0698
rfingers 7.12502
rthumb 11.5966 -11.5893
lclavicle -1.59028e-014 -7.55382e-015
lhumerus -38.1648 11.1047 87.6611
lradius 22.6227
lwrist -17.7255
lhand -13.5514 26.5267
lfingers 7.12502
lthumb 12.5616 56.129
rfemur 2.25298 6.20156 31.0386
rtibia 27.2741
rfoot -22.3862 -11.7197
rtoes -9.95992
lfemur -24.0109 -5.73554 -9.39811
ltibia 10.1968
lfoot -0.694783 12.2616
ltoes -16.6951
389
root -0.806192 17.3157 42.5127 2.33116 -6.49624 -5.00598
lowerback 4.96806 1.69054 4.87511
upperback 0.506818 2.58253 2.84938
thorax -2.18018 1.25252 0.0315822
lowerneck -15.301 -2.30841 -8.84689
upperneck 24.7495 -2.11122 4.58554
head 10.6266 -1.2523 2.85702
rclavicle 2.59911e-014 2.38542e-015
rhumerus -20.0138 -0.180254 -79.3562
rradius 39.1412
rwrist -0.891425
rhand -14.7468 18.5982
rfingers 7.12502
rthumb 11.4089 -11.0714
lclavicle 2.59911e-014 2.38542e-015
lhumerus -38.7655 11.3966 87.5751
lradius 22.6247
lwrist -18.1742
lhand -13.2137 26.3413
lfingers 7.12502
lthumb 12.8872 55.9234
rfemur 2.8517 6.2173 31.1062
rtibia 26.9927
rfoot -22.3689 -11.5158
rtoes -10.9785
lfemur -22.1954 -5.14848 -9.21159
ltibia 4.51908
lfoot 0.103319 11.1834
ltoes -13.7915
390
root -0.791987 17.2936 42.7077 2.40566 -6.6311 -4.81485
lowerback 5.00675 1.70092 4.67762
upperback 0.342222 2.59668 2.82138
thorax -2.37883 1.25601 0.107115
lowerneck -14.7689 -2.27515 -8.96401
upperneck 24.5648 -2.07475 4.56029
head 10.4544 -1.25189 2.86973
rclavicle -4.36829e-014 0
rhumerus -20.0196 0.0798133 -79.3236
rradius 39.6483
rwrist -0.99023
rhand -14.8219 18.5155
rfingers 7.12502
rthumb 11.3365 -11.1581
lclavicle -4.36829e-014 0
lhumerus -39.2915 11.5883 87.5644
lradius 22.5088
lwrist -18.5748
lhand -13.4401 26.3667
lfingers 7.12502
lthumb 12.6689 55.9624
rfemur 3.63849 6.10023 30.7025
rtibia 26.6983
rfoot -22.4371 -11.1118
rtoes -11.8413
lfemur -20.6873 -4.64175 -9.35607
ltibia -7.31528e-014
lfoot -0.0926099 10.3367
ltoes -10.1035
391
root -0.773259 17.264 42.8997 2.553 -6.77847 -4.69173
lowerback 5.01899 1.75633 4.62675
upperback 0.104478 2.68003 2.77632
thorax -2.62901 1.29084 0.0786479
lowerneck -14.2346 -2.20571 -9.01952
upperneck 24.3675 -2.038 4.66176
head 10.2771 -1.23035 2.91756
rclavicle -1.05356e-014 1.43125e-014
rhumerus -20.1803 0.378739 -79.2459
rradius 40.2539
rwrist -1.16984
rhand -14.85 18.0057
rfingers 7.12502
rthumb 11.3094 -11.6694
lclavicle -1.05356e-014 1.43125e-014
lhumerus -39.6435 11.7321 87.5523
lradius 22.107
lwrist -18.7726
lhand -13.5742 26.2046
lfingers 7.12502
lthumb 12.5397 55.8083
rfemur 4.40046 6.0831 30.365
rtibia 26.4066
rfoot -22.6515 -10.7962
rtoes -13.5284
lfemur -21.4322 -4.16735 -9.58268
ltibia -4.45278e-014
lfoot -1.50084 10.0168
ltoes -10.9619
392
root -0.75217 17.2395 43.0901 2.67613 -6.79954 -4.70876
lowerback 5.07361 1.78514 4.7509
upperback -0.0555172 2.73751 2.76283
thorax -2.81715 1.31236 -0.0129537
lowerneck -14.0972 -2.21105 -9.09722
upperneck 24.4287 -2.07273 4.78432
head 10.2772 -1.2418 2.9716
rclavicle -1.15792e-014 7.55382e-015
rhumerus -20.1994 0.486471 -79.1626
rradius 40.6103
rwrist -1.29726
rhand -14.826 17.7282
rfingers 7.12502
rthumb 11.3326 -11.9456
lclavicle -1.15792e-014 7.55382e-015
lhumerus -39.9552 12.0072 87.4446
lradius 21.927
lwrist -19.2417
lhand -13.5866 25.9244
lfingers 7.12502
lthumb 12.5277 55.5289
rfemur 5.10417 5.97941 30.1775
rtibia 26.1063
rfoot -22.6942 -10.2553
rtoes -13.5418
lfemur -21.968 -3.83768 -9.71046
ltibia 3.18055e-015
lfoot -2.91821 9.84476
ltoes -11.5166
393
root -0.73631 17.2118 43.2947 2.75274 -6.80189 -4.88551
lowerback 4.93587 1.79488 5.00463
upperback -0.0751464 2.75673 2.78521
thorax -2.74898 1.31954 -0.12738
lowerneck -14.3097 -2.28263 -9.11173
upperneck 24.6027 -2.16086 4.8142
head 10.3894 -1.28101 2.97634
rclavicle -5.71506e-015 1.86858e-014
rhumerus -20.1764 0.345168 -79.1085
rradius 41.0138
rwrist -1.38745
rhand -14.7481 18.0352
rfingers 7.12502
rthumb 11.4077 -11.6345
lclavicle -5.71506e-015 1.86858e-014
lhumerus -40.1868 12.2243 87.3364
lradius 21.7997
lwrist -19.577
lhand -13.5715 25.8373
lfingers 7.12502
lthumb 12.5422 55.4408
rfemur 5.87332 5.99037 30.2223
rtibia 25.8733
rfoot -22.4143 -9.92949
rtoes -13.278
lfemur -22.1944 -3.54674 -9.71842
ltibia -2.8625e-014
lfoot -3.14374 9.58598
ltoes -11.7975
394
root -0.724702 17.1834 43.4966 2.82063 -6.76449 -5.00149
lowerback 4.5473 1.79688 5.12772
upperback 0.126443 2.72689 2.83259
thorax -2.32005 1.3147 -0.127072
lowerneck -14.5984 -2.36154 -9.14865
upperneck 24.6023 -2.21997 4.76139
head 10.4508 -1.3146 2.95522
rclavicle 1.31695e-014 2.0276e-014
rhumerus -19.8007 0.213738 -79.0248
rradius 41.4705
rwrist -1.46926
rhand -14.8765 18.2849
rfingers 7.12502
rthumb 11.2839 -11.3916
lclavicle 1.31695e-014 2.0276e-014
lhumerus -40.1142 12.6317 87.2979
lradius 21.909
lwrist -19.8022
lhand -13.1789 25.8774
lfingers 7.12502
lthumb 12.9208 55.4574
rfemur 6.67026 6.07409 30.284
rtibia 25.7615
rfoot -21.9931 -9.98789
rtoes -15.5883
lfemur -22.2743 -3.31798 -9.82984
ltibia 6.36111e-015
lfoot -2.40378 9.52081
ltoes -11.6526
395
root -0.702366 17.154 43.6855 2.95242 -6.55804 -5.13768
lowerback 3.88672 1.7084 5.38356
upperback 0.594494 2.54384 2.86534
thorax -1.46368 1.24525 -0.192953
lowerneck -15.1319 -2.38051 -9.0524
upperneck 24.2977 -2.18872 4.67053
head 10.4384 -1.29099 2.90388
rclavicle 1.8487e-014 1.98785e-014
rhumerus -18.8088 0.161341 -78.9939
rradius 41.751
rwrist -1.60419
rhand -14.9929 18.4892
rfingers 7.12502
rthumb 11.1716 -11.1934
lclavicle 1.8487e-014 1.98785e-014
lhumerus -39.5405 13.1822 87.2627
lradius 22.343
lwrist -19.8982
lhand -12.4406 26.3295
lfingers 7.12502
lthumb 13.6324 55.8631
rfemur 7.41319 5.81618 30.2836
rtibia 25.6142
rfoot -21.4257 -9.83096
rtoes -19.2394
lfemur -22.3182 -3.29158 -10.0177
ltibia 4.45278e-014
lfoot -1.09863 9.87248
ltoes -12.5215
396
root -0.679882 17.1325 43.8765 2.82421 -6.4022 -4.96588
lowerback 4.02654 1.69116 5.38358
upperback 0.680252 2.52541 2.77159
thorax -1.45001 1.2373 -0.291572
lowerneck -15.2017 -2.29175 -8.79613
upperneck 24.122 -2.09129 4.55832
head 10.3749 -1.23187 2.83005
rclavicle 4.35835e-014 2.62396e-014
rhumerus -18.7658 -0.197058 -78.95
rradius 42.216
rwrist -1.69452
rhand -14.9463 18.4543
rfingers 7.12502
rthumb 11.2165 -11.2258
lclavicle 4.35835e-014 2.62396e-014
lhumerus -39.3916 13.6857 86.972
lradius 22.1935
lwrist -20.1952
lhand -11.4261 26.7364
lfingers 7.12502
lthumb 14.61 56.2018
rfemur 8.26945 5.73199 29.9989
rtibia 25.665
rfoot -21.0905 -9.49178
rtoes -20.3661
lfemur -21.9617 -3.29902 -10.5976
ltibia 5.40694e-014
lfoot 0.320118 10.2656
ltoes -13.3112
397
root -0.672971 17.1069 44.082 2.40579 -6.51966 -5.08695
lowerback 3.70401 1.73259 5.39758
upperback 1.40198 2.51583 2.88156
thorax -0.529921 1.26102 -0.159567
lowerneck -15.9204 -2.48988 -8.94361
upperneck 23.7118 -2.28923 4.69475
head 10.3834 -1.30583 2.86892
rclavicle -5.71506e-015 -6.75868e-015
rhumerus -17.8654 -0.57862 -78.8657
rradius 42.311
rwrist -1.53452
rhand -15.0417 18.9894
rfingers 7.12502
rthumb 11.1245 -10.6958
lclavicle -5.71506e-015 -6.75868e-015
lhumerus -38.1839 14.0506 87.144
lradius 21.4945
lwrist -20.4817
lhand -11.3639 26.7767
lfingers 7.12502
lthumb 14.6699 56.2377
rfemur 9.42223 6.12306 30.2519
rtibia 25.9151
rfoot -20.6273 -9.75624
rtoes -22.6611
lfemur -23.7564 -3.05344 -10.84
ltibia 5.16639
lfoot -1.13236 10.7805
ltoes -11.8727
398
root -0.66851 17.0768 44.2858 2.07358 -6.66996 -5.28342
lowerback 4.43667 1.792 5.41811
upperback 1.15811 2.66862 2.98185
thorax -1.18876 1.32003 -0.106032
lowerneck -15.6401 -2.57517 -9.18415
upperneck 23.7654 -2.47263 5.07228
head 10.3706 -1.37165 3.02226
rclavicle -8.44835e-016 9.54166e-015
rhumerus -18.2948 -0.738262 -78.7898
rradius 42.2396
rwrist -1.58917
rhand -15.2739 19.5521
rfingers 7.12502
rthumb 10.9006 -10.1449
lclavicle -8.44835e-016 9.54166e-015
lhumerus -38.6487 14.1078 86.9504
lradius 20.9225
lwrist -21.4517
lhand -12.2273 26.0575
lfingers 7.12502
lthumb 13.8379 55.5772
rfemur 10.2568 6.68174 30.6444
rtibia 26.2687
rfoot -19.7739 -9.84382
rtoes -24.2127
lfemur -24.6999 -2.7239 -10.9444
ltibia 8.71422
lfoot -1.66691 10.8253
ltoes -11.6755
399
root -0.651415 17.0753 44.4951 1.84191 -6.55688 -5.14625
lowerback 4.46308 1.77269 5.29524
upperback 1.30602 2.63071 2.95102
thorax -1.05665 1.30599 -0.0656127
lowerneck -15.8302 -2.69248 -9.29368
upperneck 23.8639 -2.62637 5.20275
head 10.4593 -1.43611 3.06834
rclavicle 2.25621e-014 -1.98785e-014
rhumerus -18.1393 -1.05333 -78.8087
rradius 42.5042
rwrist -1.71387
rhand -15.2248 19.0542
rfingers 7.12502
rthumb 10.9479 -10.6404
lclavicle 2.25621e-014 -1.98785e-014
lhumerus -38.5244 14.2778 86.8131
lradius 20.3245
lwrist -23.0082
lhand -13.8303 25.0904
lfingers 7.12502
lthumb 12.2927 54.7091
rfemur 10.8008 6.74277 30.4469
rtibia 26.6239
rfoot -19.0006 -9.00033
rtoes -22.4922
lfemur -25.3442 -2.68448 -11.4191
ltibia 11.3924
lfoot -1.90591 10.1722
ltoes -11.8179
